<?xml version="1.0"?>
<svg xmlns="http://www.w3.org/2000/svg" xmlns:xlink="http://www.w3.org/1999/xlink" version="1.1" id="Layer_1" x="0px" y="0px" viewBox="0 0 360.328 360.328" style="enable-background:new 0 0 360.328 360.328;" xml:space="preserve" width="512px" height="512px" class=""><g><g>
	<g>
		<path d="M358.895,76.129c-1.131-1.311-2.776-2.063-4.512-2.063c-2.016,0-3.875,1.017-4.961,2.701l-77.465,118.99L180.164,19.819    L88.37,195.757L10.914,76.78c-1.099-1.7-2.957-2.714-4.97-2.714c-1.736,0-3.38,0.753-4.512,2.064    c-1.122,1.299-1.621,3.026-1.367,4.744l38.69,259.634h282.819l38.69-259.642C360.515,79.155,360.016,77.428,358.895,76.129z     M312.656,330.164H47.67L13.278,99.37l76.077,116.859L180.164,42.18l90.808,174.049l76.075-116.858L312.656,330.164z" data-original="#000000" class="active-path" data-old_color="#000000" fill="#50473D"/>
	</g>
</g><g>
	<g>
		<rect x="35.391" y="276.98" width="289.56" height="10.343" data-original="#000000" class="active-path" data-old_color="#000000" fill="#50473D"/>
	</g>
</g></g> </svg>
